<svg width="16" height="17" viewBox="0 0 16 17" fill="none" xmlns="http://www.w3.org/2000/svg">
<g clip-path="url(#clip0_108_559)">
<path d="M6.09625 8.22671V8.22156C5.49822 8.22156 5.01562 8.71593 5.01562 9.32356C5.01562 9.93118 5.49822 10.4256 6.09625 10.4256C6.69428 10.4256 7.17691 9.93121 7.17691 9.32871C7.17691 8.72103 6.68903 8.22671 6.09625 8.22671Z" fill="white"/>
<path d="M8 0.911133C3.68528 0.911133 0.1875 4.40891 0.1875 8.72363C0.1875 13.0384 3.68528 16.5361 8 16.5361C12.3147 16.5361 15.8125 13.0384 15.8125 8.72363C15.8125 4.40891 12.3147 0.911133 8 0.911133ZM10.8904 12.8459C10.8904 12.8459 10.4969 12.408 10.2137 12.0219C11.5776 11.6357 12.0918 10.8633 12.0918 10.8633C10.6737 11.7401 9.34934 12.0774 8 12.0336C6.65066 12.0773 5.32625 11.7401 3.90831 10.8633C3.90831 10.8633 4.42237 11.6357 5.78644 12.0219C5.50319 12.4081 5.10975 12.8459 5.10975 12.8459C2.76997 12.7944 1.8625 11.3628 1.81 11.4246C1.81 8.23707 3.3575 5.64163 3.3575 5.64163C4.74238 4.64788 6.03284 4.60657 6.27938 4.60141L6.43678 4.75076C4.66894 5.2451 3.81387 6.01754 3.81387 6.01754C5.33116 5.2847 6.76122 5.02691 8 5.01148C9.23881 5.0271 10.6687 5.2847 12.1861 6.01754C12.1861 6.01754 11.3311 5.2451 9.56325 4.75076L9.72062 4.60141C9.96719 4.60657 11.2576 4.64776 12.6425 5.64163C12.6425 5.64163 14.19 8.23701 14.19 11.4246C14.1375 11.3628 13.23 12.7944 10.8904 12.8459Z" fill="white"/>
<path d="M9.90487 8.22156V8.22671C9.31209 8.22671 8.82422 8.72109 8.82422 9.32871C8.82422 9.93121 9.30687 10.4256 9.90487 10.4256C10.5029 10.4256 10.9855 9.93121 10.9855 9.32356C10.9855 8.7159 10.5029 8.22156 9.90487 8.22156Z" fill="white"/>
</g>
<defs>
<clipPath id="clip0_108_559">
<rect width="16" height="16" fill="white" transform="translate(0 0.723633)"/>
</clipPath>
</defs>
</svg>
