<svg width="16" height="17" viewBox="0 0 16 17" fill="none" xmlns="http://www.w3.org/2000/svg">
<g clip-path="url(#clip0_108_555)">
<path d="M8 0.973633C3.72188 0.973633 0.25 4.44551 0.25 8.72363C0.25 13.0018 3.72188 16.4736 8 16.4736C12.2781 16.4736 15.75 13.0018 15.75 8.72363C15.75 4.44551 12.2781 0.973633 8 0.973633ZM5.79063 12.5986C4.76291 12.5986 3.77729 12.1904 3.05059 11.4637C2.32388 10.737 1.91562 9.75135 1.91562 8.72363C1.91562 7.69592 2.32388 6.7103 3.05059 5.98359C3.77729 5.25689 4.76291 4.84863 5.79063 4.84863C6.76875 4.84863 7.66875 5.19238 8.38437 5.85801L7.33437 6.87676C6.92188 6.47363 6.35625 6.27988 5.79063 6.27988C4.45 6.27988 3.37812 7.38926 3.37812 8.72051C3.37812 10.0518 4.44688 11.1611 5.79063 11.1611C6.80937 11.1611 7.81875 10.5643 7.98125 9.49551H5.79063V8.16426H9.44375C9.48407 8.3775 9.50395 8.59411 9.50313 8.81113C9.50313 11.0236 8.01875 12.5986 5.79063 12.5986ZM12.9844 9.27988V10.3893H11.875V9.27988H10.7656V8.17051H11.875V7.06113H12.9844V8.17051H14.0844V9.27988H12.9844Z" fill="white"/>
</g>
<defs>
<clipPath id="clip0_108_555">
<rect width="16" height="16" fill="white" transform="translate(0 0.723633)"/>
</clipPath>
</defs>
</svg>
