<svg width="186" height="24" viewBox="0 0 186 24" fill="none" xmlns="http://www.w3.org/2000/svg">
<path d="M60.5599 8.17065L59.4746 15.8336H72.2359L72.8031 11.8352L69.1386 8.17065H60.5599Z" fill="white"/>
<path d="M34.3828 15.8331H47.1441L48.2301 8.17017H35.4688L34.3828 15.8331Z" fill="white"/>
<path d="M105.929 0.0018318L105.562 2.58227L105.019 6.4165H103.616L104.041 3.42507L104.526 0.0018318H78.7662L78.3987 2.58227L77.989 5.47754L73.3953 0.883826L72.5157 0.00428417H3.40119L3.03369 2.58473L0.485096 20.5768L0 24H101.128L101.495 21.4196L102.039 17.5853H108.06L108.428 15.0049L108.501 14.4855H108.505L108.872 11.9045L108.976 11.1695H113.495L112.156 20.5768L111.672 24H122.725L123.093 21.4196L124.544 11.1707H129.689L128.353 20.5768L127.868 24H181.976L182.359 21.4434V21.4312V21.4189L183.094 16.2526L183.58 12.8293H183.576L183.81 11.1707H183.815L184.182 8.58963L184.917 3.42384L185.402 0L105.929 0.0018318ZM27.0484 15.833L26.3134 20.9994H3.45876L6.00858 3.00428H28.8669L28.135 8.17006H10.2648L9.17885 15.833H27.0484ZM28.6617 20.9994L31.2115 3.00428H53.9504L51.4006 20.9994H28.6617ZM77.1713 16.2054L76.4914 20.9994H53.7532L56.303 3.00428H71.2724L78.0772 9.81033L77.1713 16.2054ZM99.4288 14.5853H84.7209L84.5439 15.833H99.253L98.518 20.9994H78.8201L79.4394 16.6286L79.9159 13.2636L80.461 9.41833H100.159L99.4288 14.5853ZM100.338 8.17068H80.6399L81.3718 3.00428H101.07L100.338 8.17068ZM105.45 14.5847H101.764L102.057 12.5188H105.745L105.45 14.5847ZM105.893 11.4843H102.206L102.499 9.41833H106.185L105.893 11.4843ZM121.935 8.17068L120.116 20.9994H115.128L116.946 8.17068H107.805L108.537 3.00428H131.513L130.778 8.17068H121.935ZM154.914 15.833L154.179 20.9994H131.325L133.875 3.00428H156.733L156.001 8.17006H138.132L137.044 15.833H154.914ZM181.207 8.17006H163.339L162.253 15.833H175.125L175.3 14.5853H167.353L168.085 9.41833H181.027L180.295 14.5853H180.286L180.112 15.833H180.12L179.388 20.9994H156.53L159.08 3.00428H181.94L181.207 8.17006Z" fill="white"/>
</svg>
