<svg width="16" height="17" viewBox="0 0 16 17" fill="none" xmlns="http://www.w3.org/2000/svg">
<g clip-path="url(#clip0_108_557)">
<path d="M8.01719 0.973633C3.64125 0.973633 0.25 4.17176 0.25 8.49145C0.25 10.7508 1.17844 12.7033 2.68969 14.0521C2.95062 14.2868 2.89688 14.4227 2.94125 15.8718C2.94474 15.9733 2.97302 16.0724 3.02361 16.1604C3.0742 16.2485 3.14557 16.3228 3.23149 16.377C3.31741 16.4311 3.41528 16.4634 3.51655 16.4711C3.61782 16.4787 3.71943 16.4615 3.8125 16.4208C5.46594 15.6927 5.48719 15.6352 5.7675 15.7114C10.5578 17.0299 15.75 13.9643 15.75 8.49145C15.75 4.17176 12.3934 0.973633 8.01719 0.973633ZM12.6809 6.75895L10.3997 10.3705C10.3135 10.5063 10.2003 10.6229 10.067 10.7129C9.93369 10.8028 9.78325 10.8643 9.62509 10.8935C9.46693 10.9226 9.30445 10.9187 9.14785 10.8822C8.99124 10.8456 8.84388 10.777 8.715 10.6808L6.9 9.32238C6.81886 9.26153 6.72017 9.22863 6.61875 9.22863C6.51733 9.22863 6.41864 9.26153 6.3375 9.32238L3.88844 11.1799C3.56156 11.4277 3.13344 11.0361 3.35375 10.6902L5.635 7.07863C5.72111 6.94279 5.83437 6.82621 5.96766 6.73619C6.10094 6.64618 6.25139 6.58467 6.40957 6.55554C6.56775 6.5264 6.73024 6.53027 6.88685 6.56688C7.04347 6.6035 7.19082 6.67208 7.31969 6.76832L9.13406 8.12645C9.2152 8.1873 9.31389 8.2202 9.41531 8.2202C9.51674 8.2202 9.61542 8.1873 9.69656 8.12645L12.1469 6.27082C12.4731 6.02145 12.9012 6.4127 12.6809 6.75895Z" fill="white"/>
</g>
<defs>
<clipPath id="clip0_108_557">
<rect width="16" height="16" fill="white" transform="translate(0 0.723633)"/>
</clipPath>
</defs>
</svg>
