<svg width="16" height="17" viewBox="0 0 16 17" fill="none" xmlns="http://www.w3.org/2000/svg">
<g clip-path="url(#clip0_108_564)">
<path d="M4.73242 4.77454V11.0791H6.69333V12.3818L7.99969 11.0791H10.3961L11.9215 9.55726V4.77454H4.73242ZM7.99969 9.12363H7.12879V6.51454H7.99969V9.12363ZM10.3951 9.12363H9.52333V6.51454H10.3951V9.12363Z" fill="white"/>
<path d="M8 0.723633C6.41775 0.723633 4.87103 1.19282 3.55544 2.07188C2.23985 2.95093 1.21447 4.20036 0.608967 5.66217C0.0034663 7.12397 -0.15496 8.73251 0.153721 10.2844C0.462403 11.8362 1.22433 13.2617 2.34315 14.3805C3.46197 15.4993 4.88743 16.2612 6.43928 16.5699C7.99113 16.8786 9.59966 16.7202 11.0615 16.1147C12.5233 15.5092 13.7727 14.4838 14.6518 13.1682C15.5308 11.8526 16 10.3059 16 8.72363C16 6.6019 15.1571 4.56707 13.6569 3.06678C12.1566 1.56649 10.1217 0.723633 8 0.723633V0.723633ZM12.7918 9.99636L10.1818 12.6009H8.21728L6.90909 13.9055H5.60364V12.6009H3.20819V5.64545L3.86091 3.90545H12.7918V9.99636Z" fill="white"/>
</g>
<defs>
<clipPath id="clip0_108_564">
<rect width="16" height="16" fill="white" transform="translate(0 0.723633)"/>
</clipPath>
</defs>
</svg>
